<svg version="1" xmlns="http://www.w3.org/2000/svg" width="778.667" height="778.667" viewBox="0 0 584.000000 584.000000"><path d="M252.6 106.9c-.4.6 0 1.1 1.1 1.1 1 0 2.5.5 3.3 1 1.3.9 1.1 1.3-1 3-1.4 1.1-4.2 2.3-6.2 2.6-2.1.4-3.8 1-3.8 1.5s-1.3.6-2.9.3c-1.9-.4-3.8 0-5.2 1-1.3.9-2.9 1.6-3.6 1.6-.7 0-4.4 2.1-8.3 4.6-7.1 4.5-13 11.1-13 14.4 0 1.8-4.5 9-6.2 10.1-.9.6-3.1 6.1-5.9 14.4-.5 1.7-.7 7.7-.3 14 .5 9.6.4 11.8-1.5 17-3.3 9.5-6.1 22.5-6.1 28.5-.1 3-.7 8.2-1.5 11.5-1.9 7.8-1.9 14 0 16.9 2.4 3.6.6 6.8-4.6 8.4-2.3.7-5.3 2.2-6.7 3.3-1.4 1-3.6 1.9-4.9 1.9-1.3 0-3.4 1-4.7 2.2-2.3 2.4-9 5.3-10.4 4.5-.4-.3-2.6-.2-4.9.2-2.2.5-4.8.4-5.6-.1-1-.5-2.9-.2-5.2.9-2.9 1.4-4.1 1.5-6.5.6-1.7-.6-3-.8-3-.3s-1.3 1.1-2.9 1.5c-1.6.3-3.2 1.2-3.5 2-.3.8-2.8 1.6-6.3 2-3.2.3-7.1 1.3-8.7 2.2-3.1 1.7-12.9 1.3-16.6-.7-2.4-1.3-9-1.3-9 0 0 .5-.9 1-2 1s-2 .4-2 .9-2 .9-4.5.9-4.5-.4-4.5-1c0-.5-1.2-.7-3-.3-2.6.6-3 .4-3-1.4 0-4.7-11.7-7.4-14-3.1-.6 1.1-2 2-3.1 2-2.3 0-3.7-2.9-1.9-4 2.2-1.3.4-3.7-3.4-4.4-2-.4-4.4-1.8-5.5-3.2-2.1-2.7-9.5-5.9-11.1-4.9-.5.3-2.5-.1-4.4-.9-2.4-1-3.6-2.2-4.1-4.4-.8-3.9-5.7-8.2-9.4-8.2-3.4 0-10.1-2.6-10.1-4 0-.6.7-1 1.5-1 1.8 0 1.8-.5.5-3-.6-1.1-1.7-1.7-2.5-1.4-1.3.5-1.5 5.8-1.5 37.5 0 34.1.4 39.4 2.5 35.9.3-.6 2.4-1 4.6-1 2.2 0 3.8.4 3.4.9-.9 1.5 1.3 2.3 3.2 1.3 1.2-.6 3.6-.5 6.8.4 2.8.7 6.6 1.3 8.5 1.4 5.3 0 23.1 3.2 26.8 4.7 3 1.2 4.8 3.9 1.9 2.7-1.4-.5-4.7 5.4-4.7 8.6 0 1.1-.3 2-.8 2-.4 0-1.2 1-1.7 2.2-.8 1.9-1.8 2.3-5.7 2.3-2.7 0-4.8.3-4.8.7 0 .5 1.5.8 3.3.8 3.6.1 7.2 2.3 6.2 3.9-1.1 1.8.7 1.2 2.1-.7 2.2-2.9 1.7.6-.7 4.4-1.1 1.9-2.8 3.4-3.8 3.4-.9 0-2.7.9-3.8 2-1.5 1.4-2.3 1.6-2.6.7-.3-.7-.6.7-.6 3-.1 2.4.4 4.3.9 4.3.6 0 1 .8 1 1.8s.4 2.2.9 2.7c.6.6 1.1 3.5 1.3 6.5.2 4 .7 5.5 1.8 5.6 4.1.3 4.2.4 3.6 3.1-.4 1.6-1.2 3.2-1.9 3.8-1 .9-1.5 4.2-1.7 13-.1 4.5.1 6 1.2 7.2.8 1 .7 1.7-.6 2.6-1.3 1-1.8 3.5-2.2 13.2-.3 6.6-.7 14-.9 16.5-1.8 23-3.6 37.3-4.8 38.1-.6.4-.7 2.5-.4 4.8.3 2.3.2 4.3-.3 4.6-2.1 1.3-1.6 13.4.8 19.5.3.8.7 2.4.8 3.5 1.4 9 2.2 12.5 3.1 13.7 1.1 1.3 1.3 3.2 1.3 11.1 0 4.4-4.5 18.2-10.2 31.2-2.2 5-5.1 11.8-6.4 15.2l-2.3 6.3h160.6c159.9 0 160.6 0 158.3-2-1.4-1.2-2-2.6-1.6-3.5.7-1.9-1-5.6-3-6.8-.8-.4-1.4-1.8-1.4-3.1s-.6-4.1-1.4-6.3c-.7-2.1-1.2-6.3-1-9.3.1-3 0-4.9-.3-4.2-.7 1.7-2.3.5-1.7-1.3.5-1.2-.7-11.2-2.1-18.2-.4-1.6 1-4 5.1-8.8 5.2-6.1 5.5-6.8 4.9-10.4-.7-4.1 1.5-10.1 3.7-10.1 1.5 0 3.7-3.1 3.8-5.2 0-1.9 5.4-10.3 7.3-11.5 1.6-1 7-.3 7.9 1 .9 1.5-.1 3.7-3.9 8.4-4 5-4.1 6.3-.5 6.2 10.2-.5 16-6.1 11.5-11.1-1.3-1.4-1.4-2.1-.5-3 1.7-1.7 1.5-4.8-.3-4.8-1.2 0-1.5-1.7-1.5-9.6 0-9-.3-10.3-4.6-21.2-5.1-13.1-8-18.6-11.8-22.1-3.2-3-3.2-2.9-.2-9.1 1.3-2.8 1.9-4.7 1.3-4.3-2.8 1.6-19.7 14.5-20.2 15.4-.4.5 1.1.9 3.3.9 3.7 0 4 .2 4.4 3 .3 1.7.1 3.3-.4 3.6-.5.3.1 1.8 1.2 3.4 2.9 4 2.5 7.6-1 11.1-2.3 2.3-3.7 3-6.1 2.7-3.9-.4-7.2-4.4-7.2-8.7 0-2.5-.3-2.9-1.4-1.9-1.1.9-1.8.8-2.9-.4-1.3-1.3-1.3-1.7-.2-2.9.8-.8 1.7-2.4 2-3.6.5-2 0-1.9-6.9 1.8-4.1 2.2-8.2 4.4-9.1 4.9-3.9 2-11 3.5-15.8 3.2l-5.2-.3.1-3.4c.1-1.9-.6-4.2-1.5-5.2s-2.2-3.9-2.9-6.4c-1.1-4-1-5.5.4-10 .9-3 2-7.3 2.3-9.7 1.3-8.3 3-11.6 6.3-12.6 1.7-.5 3.1-1.3 3.1-1.7 0-.5.5-.9 1.1-.9 1.5 0 20.2-11 21.7-12.8 2.1-2.7 1.4-4.9-1.7-5.5-2.8-.6-3.4-1.6-5.7-9.2-.9-2.8-1.3-3-5.8-3.1-2.6 0-5.1-.6-5.5-1.3-.4-.6-1.8-1-3.1-.9-2 .3-2.6-.4-3.7-4.2-1.2-4.2-1.2-4.8.9-8.9 1.3-2.4 3.1-4.6 4-4.9 2.3-.6 2.3-.8-.7-4-2.2-2.4-2.7-2.5-4.6-1.4-3.2 2-4.6.1-3.1-4.1 1.6-4.5 1.6-4.4-2-5.3l-3.3-.7 3.2-1.1c4.8-1.7 5-2.5.4-3.2-3.6-.6-4-.9-3.5-2.8.3-1.4-.2-2.8-1.5-4-2.2-2-2.8-4.6-1.1-4.6.9 0 1.4 1.4 1.1 3.3-.1.7 2.8.4 11.7-.9 2.9-.4 3.2-.7 2.6-3.2-1-4.3-3.3-6.2-7.4-6.2-2.6 0-4.3.7-6 2.5-2.2 2.3-2.5 2.4-3.3.9-.7-1.3-.5-2.1.7-2.9 1.5-1.2 1.5-1.6.2-5.1-3.5-8.8-5-47-2.1-49.4 1.1-.9 1.4-2.2 1-4-.5-2.3-.2-2.9 1.9-3.4 1.5-.3 3.6-.4 4.9-.1 1.6.4 2.6 0 3.6-1.6 1.3-2.2 1.2-2.2-3.1-1.6-2.5.3-5.7.3-7.3-.1-2.5-.7-2.8-1.2-2.9-5.2-.1-3.4-.6-4.6-1.9-4.8-.9-.2-1.5-.8-1.2-1.3 1-1.5-1.5-1-3.1.6-.9.8-2 1.5-2.6 1.5-.6 0-.8-.3-.5-.7 1.1-1-4.4-6.3-6.5-6.3-1.9 0-3.8-2.8-3.8-5.9 0-1.1 1.4-4 3-6.4 1.7-2.5 3-4.9 3-5.5 0-.5.7-1.5 1.5-2.2 1-.9 1.4-3.1 1.3-8.4-.1-6.5.3-9 3.2-16.1 1.8-4.4 1.9-5.7.8-7.4-.7-1.1-.8-2.6-.3-3.7s.9-2.1.9-2.4c.4-2 5.9-5.6 11-7.1 7.3-2.2 14.6-2.4 21.2-.5 2.7.8 7.4 2.1 10.4 3 7 2 14.9 7.1 22.3 14.3 3.7 3.6 6.1 5.3 6.5 4.6 1.1-1.7 4.5 1.1 4.8 3.9.1 1.3.3 2.6.3 3 .1.4.8.4 1.8.1 1.1-.4 1.4-.3.9.5-.5.8-.2 1 .9.6 1.9-.8 5.4 1.5 10.1 6.6 2.1 2.2 4.5 4 5.4 4 .9 0 2.2.6 2.9 1.2 2.8 2.7 0-7.7-3.9-14.5-2.4-4.2-3.4-6.7-2.5-6.7.7 0 1.5-.9 1.8-2.1.4-1.5.2-1.9-.9-1.5-.7.3-1.3.1-1.1-.5.2-1.2-7.6-5.6-11.3-6.3-1.4-.3-3.4-1.2-4.5-2.1-1.9-1.5-1.7-1.6 2.8-1.2 4.7.5 4.8.4 4.3-1.9-.4-1.5-.1-2.6 1-3.2 1.4-.8 1.3-1-.7-1.5-1.4-.3-6.7-.9-11.9-1.2-5.2-.4-9.6-.8-9.8-.9-.5-.5 5.3-5.9 8.3-7.7 1.7-1.1 4.9-1.9 7.2-1.9s4.4-.4 4.8-.9c.9-1.6-10.9-.5-14.8 1.4-6.1 2.9-8.7.3-4.7-4.8 1.8-2.3 1.8-2.5.2-2.2-.9.2-5.6.6-10.4.9-7.3.4-8.8.2-8.8-.9 0-.8-.4-1.5-.9-1.5-.4 0-2.1-1.9-3.7-4.3-6-8.8-7.8-10.6-9.9-10.2-1.3.3-3.8-1-7.5-4-14.2-11.5-18.2-13.9-24-14.6-3-.4-7.8-1-10.6-1.4-3.5-.5-5.4-.4-5.8.4zM39 271c0 1.4-1 1.9-4.1 2.2-2.2.2-4.2.2-4.4-.1-.3-.2 1-1.6 2.8-3.2 3.3-2.9 5.7-2.5 5.7 1.1zm49 12c0 .5 2.1 1.1 4.8 1.2 3.8.1 4.1.2 1.3.5-4 .5-8.1-.4-8.1-1.7 0-.6.5-1 1-1 .6 0 1 .4 1 1zm-39.3 74.2c-.3.7-.5.2-.5-1.2s.2-1.9.5-1.3c.2.7.2 1.9 0 2.5zm256.2 13c0 2.8-.2 3-.9 1.3-1.2-2.8-1.2-4.5 0-4.5.6 0 1 1.5.9 3.2zM277 445.1c1.9 1.3 2.6 2.8 2.8 5.6.2 2.1.5 4.6.8 5.6.4 1.3-.1 1.2-2.1-.7-1.5-1.4-3.6-2.8-4.6-3.1-2.6-.9-8.1-6.5-6.3-6.5.8 0 1.4-.6 1.4-1.4 0-1.5 2.8-2.6 4.5-1.8.6.3 2.1 1.3 3.5 2.3zm10-.1c0 .5-.8 1-1.7 1-1.5 0-1.6-.2-.3-1 1.9-1.2 2-1.2 2 0zm38.8 10.6c.6.2 1.2.9 1.2 1.5 0 .8-1.6 1-5.5.5-3.5-.4-5.5-.2-5.5.4 0 .5-.4 1-1 1-1.1 0-1.4-3.3-.4-4.3.6-.6 8.4 0 11.2.9zm-5.5 27.9c-.7 1.9-3.3 2-3.3.1 0-1.5 2-2.6 3.2-1.9.4.2.5 1 .1 1.8zm-3.7 2.9c1.7 1.8 1.8 4.6.2 8.1-1.4 3.2-2.7 3.2-2 0 .3-2 0-2.5-1.8-2.5-1.6 0-2 .5-1.6 1.7.3 1-.3 2.9-1.4 4.3l-1.9 2.5-.9-2.5c-.7-1.9-.6-2.9.7-4.2.9-.9 2.7-3.2 4.1-5.2 2.9-4.1 2.7-4 4.6-2.2zm-.3 29.8c.3 1.3.4 4.3.1 6.8-.2 2.5-.6 7.2-.8 10.5-.9 12.8-1 12.5-1.6-2.5-.3-8.5-.4-15.8-.2-16.3.6-1.5 2-.6 2.5 1.5z"/><path d="M579.5 112c-2 1.6-4.5 3.2-5.5 3.5-1 .3-2.1 1.2-2.4 2-.3.8-1.1 1.5-1.9 1.5-.7 0-2.4 1.1-3.7 2.5-1.3 1.4-3.1 2.5-4 2.4-2.2-.3-7 1.2-7 2.2 0 1.3-7 7.8-9.1 8.4-1.1.4-1.9 1.1-1.9 1.6s-.9.9-1.9.9c-1 0-2.1.7-2.5 1.5-.3.8-1.1 1.5-1.7 1.5-.7 0-2 .6-2.8 1.4-.9.7-3.6 2.4-6.1 3.7-2.5 1.3-6.1 3.6-8.1 5.1-2 1.6-4.1 2.8-4.7 2.8-.6 0-2.2 1-3.5 2.2-6.2 5.9-8.6 7.8-9.7 7.8-1.7 0-13 6.9-13 8 0 .4-1.7 1.6-3.7 2.5-2.1 1-4.4 2.4-5.2 3.2-.7.8-3.1 2.1-5.2 3-2.2.8-3.9 1.9-3.9 2.4s-.9.9-2 .9c-1 0-2.4.9-3 2-.6 1.1-2.2 2.3-3.5 2.6-1.4.3-2.5 1-2.5 1.5s-.6.9-1.4.9c-.8 0-2.1.6-2.8 1.4-.8.7-3.3 2.3-5.5 3.4-2.2 1.2-4.3 2.8-4.6 3.7-.4.8-1.5 1.5-2.6 1.5s-2.1.3-2.3.7c-.7 1.8-12.8 9.3-14.8 9.3-1.3 0-2.4.8-2.7 2-.3 1.1-2 2.5-3.9 3.2-1.9.7-3.4 1.7-3.4 2.4 0 .6-1.2 1.5-2.7 1.9-1.6.3-3.7 1.5-4.8 2.5-2 1.8-9.5 5.3-9.5 4.4 0-.2-1.3.2-3 1.1-1.6.9-3 2-3 2.4 0 .5-1.3 1.2-2.9 1.6-1.6.3-3.7 1.7-4.5 3.1-.9 1.3-2.2 2.4-2.8 2.4-.6 0-1.9.7-2.9 1.6-1.5 1.4-2 1.4-3.6.2-1-.7-1.8-1.8-1.8-2.3-.1-2.8-1.8-9.5-2.3-9.5-1.8 0-3.5 4.9-3.3 9.2.3 6.4-.5 7.5-3.5 4.7l-2.4-2.2v2.6c0 2 .5 2.7 1.9 2.7 1.1 0 2.3.5 2.6 1 1.1 1.8 8.3 5 9.9 4.4 1.9-.7 7.3 2.2 8 4.3.2 1 .4 9.9.3 19.8-.3 20.1-.8 22.2-7.2 27.1-3 2.3-4.1 2.5-8 2-4.1-.7-4.5-.5-4.5 1.3 0 1.1-.7 4.6-1.5 7.8-.8 3.1-1.5 9.1-1.5 13.3 0 4.2-.7 10.2-1.5 13.4-1.2 4.4-1.4 9.2-1 20.4.3 8.1.5 19.1.5 24.4 0 9 .2 9.9 2.4 12.1 1.4 1.4 3.2 4.8 4 7.7.9 2.9 2.7 7.3 4.1 9.7 1.5 2.4 3.8 7.8 5.3 11.9 1.5 4.2 3.2 7.7 3.7 7.7.6.1 1.1-1.7 1.3-4 .2-3.4.6-4.1 1.9-3.6.9.4 2.1-.1 2.8-1.1 1.2-1.5 1.4-1.5 2.9-.1.9.9 1.6 1.2 1.6.6 0-2 4.7-1.1 7 1.4 1.3 1.4 3.1 2.5 4 2.5.9 0 2.7 1.1 4 2.5 2.4 2.6 5 3.3 5 1.4 0-.7 1-.9 2.5-.7 2.2.5 2.5.1 3.1-3.1.7-3.3.8-3.4 1.6-1.2.5 1.3 1.3 7.5 1.8 13.8.5 6.3 1.5 12.8 2.2 14.4 1.7 3.7 15.3 11.9 19.9 11.9 1.4 0 4.8.7 7.5 1.5s6.1 1.5 7.7 1.5c1.5 0 3.5.9 4.5 2.1 1.7 2 12 7.3 19.5 10 3 1.1 4.2 1.1 5.7.1 1.8-1.1 2-1 2 .9 0 2.8 10.4 12.8 14 13.6 2.9.5 11.2 8.9 15.5 15.6 1.1 1.7 2.6 2.7 4.2 2.7 2.1 0 2.3.2 1.3 1.5-1.3 1.6-.9 3.4 2.5 11 1.3 2.7 3 8 4 11.8.9 3.7 2.2 7 2.7 7.3.5.3 1.8-.2 2.9-1.2 2.4-2.1 2.9-1.6 3.6 3.3.4 2.8.1 4.2-1.1 5.2-2 1.7-2.1 7.2-.2 11.4.8 1.8 1.6 5.4 1.9 8.1.3 2.7.9 5.1 1.5 5.5.5.3 1.1 1.5 1.3 2.6.3 1.4 1.2 2 2.9 2 1.8 0 2.5-.6 2.6-2 .1-1.1.2-2.6.3-3.3.1-.8.8-1.1 1.9-.8 1.5.5 2.1-.2 3-3.3 1.2-3.9.7-7.5-.8-6.6-.5.3-1.2-.4-1.5-1.5-.7-2.2.9-5 3-5 1.2 0 2.5-12.8 2.5-25.7 0-14.5 5.5-27.3 11.7-27.3 3 0 2.9 1.5-.2 5.1-2.2 2.7-4.5 8.5-4.5 11.6 0 2.2 2.1 2.5 10.6 1.3l8.4-1.2V195l-2.7 1.2c-1.6.7-3.8 2-4.9 3-1.2 1.1-3.4 2.3-5 2.7-1.6.5-2.8 1.4-2.6 2 .1.7-1.1 1.7-2.8 2.2-1.6.6-3 1.5-3 2.1 0 .6-.6.8-1.4.5-.7-.3-3.2 1.4-5.7 3.9-4.2 4.3-9.5 6.2-8.3 3 .5-1.3 12.7-9.7 20.4-13.9 1.9-1.1 6.3-4 9.7-6.6l6.3-4.6v-40.8c0-22.4-.2-40.7-.4-40.7s-2 1.3-4.1 3zm2.5 51c0 .5-.7 1-1.6 1-.8 0-1.2-.5-.9-1 .3-.6 1-1 1.6-1 .5 0 .9.4.9 1zm-21 21c0 .5-.5 1-1.1 1-.5 0-.7-.5-.4-1 .3-.6.8-1 1.1-1 .2 0 .4.4.4 1zm-40.2 53.7c1.5 1 3.1 2.2 3.5 2.8.7.9.4 7.3-.9 19.2-.5 4.3-.3 5.4 1 5.9 2.2.8 2.2 7.2 0 8.1-.8.3-2.9.1-4.7-.4-3-.8-3.2-1.1-3.2-5.8 0-3.2-.5-5.4-1.5-6.1-1.2-1-1.2-1.4-.1-2.8 1.1-1.3 1.3-3.9.8-11-.4-6.4-.3-9.6.5-10.4 1.5-1.5 1.4-1.5 4.6.5zm-8.3 14c-.4 1-1 2.8-1.2 4-.6 2.8-1.9 2.9-3.3.3-.8-1.5-.6-2.4 1-4 2.5-2.5 4.5-2.6 3.5-.3zm42.6 6.6c-.8.8-1.1.7-1.1-.4 0-2 1.3-3.4 1.8-1.9.3.7-.1 1.7-.7 2.3zm-38.3 17.9c-.7 1.9-3.8 2.2-3.8.4 0-1 .9-1.6 2.1-1.6 1.2 0 1.9.5 1.7 1.2zm6.5-.4c-1.6 1-.4 2.7 2.4 3.6 1.9.6 2.1 1 1.2 3.4-.6 1.5-1 2.9-.9 3.2.1.3-.5.6-1.3.8-1.9.4-4.7-2.5-4.7-4.8 0-3 1.8-7 3.2-7 1 0 1 .2.1.8zM500 289c0 .5-.4 1-1 1-.5 0-1-.5-1-1 0-.6.5-1 1-1 .6 0 1 .4 1 1zm-8 5c0 .5-.5 1-1.1 1-.5 0-.7-.5-.4-1 .3-.6.8-1 1.1-1 .2 0 .4.4.4 1zm28.3 10.2c1 .5 1.7 2 1.7 3.9v3l-5.7-.3c-5.8-.3-5.8-.3-6.1-3.7-.2-2 .2-3.7 1-4.2 1.4-.9 6.1-.3 9.1 1.3zm4.7 17.3c1.3 1.5 1.6 5.3.6 8.2-.6 1.7-.3 2.3.8 2.3.9 0 2.4.9 3.3 2 1 1.1 2.5 2 3.5 2 2.8 0 3.1 1.9.4 3.1-1.4.7-2.8 2-3.1 3.1-.4 1-1.2 1.8-1.9 1.8-1.4 0-3 1.9-7.5 9.2-2.7 4.2-3.6 4.9-9.6 6.7-7.9 2.5-8.5 2.5-6 .7 1.1-.8 2.3-1.2 2.6-1 .4.2 1.6-.6 2.8-1.9 1.1-1.2 4.1-4.2 6.6-6.7 2.5-2.6 4.5-4.9 4.5-5.3 0-.9-7.3 2-12.5 5-6.4 3.6-10.7 2.5-4.9-1.4l2.6-1.7-2.1-1.5c-1.1-.9-2.3-3-2.7-4.7-.7-3.6-.5-3.7 10-6.3l7-1.7-.3-6.2c-.1-3.4 0-6.6.3-7.1.7-1.1 4.2-.3 5.6 1.4zm-27 20.7c0 1.1-14.1 7.8-16.3 7.8-.5 0-1.5.7-2.4 1.5-1.5 1.5-3.7 1.1-3.1-.6.4-1.1 18.4-9.7 20.6-9.8.6-.1 1.2.5 1.2 1.1zm-78 22.6c0 1.9-4.3 5.2-8.2 6.3-4 1-11.7.7-13.9-.7-1.4-.8.9-3.3 4.5-4.9 3.4-1.4 17.6-2 17.6-.7zM304.9 221.2c-.8.8-3.2 1.9-5.5 2.5-3.4.8-4.4.7-6.3-.8-4-3.3-11.8 0-13.5 5.6-.4 1.6.1 2.3 2.4 3.4 3.3 1.4 9.6.4 16.9-2.6 2.2-.8 3.7-1 4.1-.4.3.6 2.4 1.3 4.7 1.7 4 .6 4.1.5 7.2-3.9 1.7-2.5 2.8-4.8 2.4-5-.5-.3-3.1-.8-5.9-1.2-3.8-.5-5.5-.3-6.5.7zM309 236.3l-2.5 1.1 2.7.4 2.8.3-3 2.5c-1.6 1.4-3.9 3.9-5.1 5.5-2 2.8-2 3.1-.4 6.4 1 2.4 2.3 3.5 3.8 3.6 5 .3 8.7-.9 6-1.8-1.5-.5-1.8-3.3-.4-3.3.6 0 1.2.4 1.5.9.3.5 1.5.7 2.6.4 1.1-.3 2 0 2 .6s-.7 1.1-1.5 1.1-1.5.4-1.5 1c0 .5 1.3 1 3 1 2.5 0 3.2-.6 4.8-4.3 1.8-3.8 1.8-4.3.4-5.5-.9-.6-2.4-1.2-3.4-1.2-2.3 0-5.3-2.8-6.2-5.6-.5-1.7 0-2.2 3.1-3.1l3.8-1-5-.1c-2.7 0-6.1.4-7.5 1.1zM355.4 239.6c.3.9.6 2.9.6 4.5 0 3.7 2.6 2.9 3.2-1 .6-3.8 0-5.1-2.4-5.1-1.4 0-1.8.5-1.4 1.6z"/><path d="M367.5 250c-.3.6.1 1.3 1 1.6 1.9.8 3 0 2-1.5-.8-1.4-2.2-1.4-3-.1zM158.8 268.7c.7.3 1.6.2 1.9-.1.4-.3-.2-.6-1.3-.5-1.1 0-1.4.3-.6.6zM96.8 276.7c.6.2 1.8.2 2.5 0 .6-.3.1-.5-1.3-.5-1.4 0-1.9.2-1.2.5zM11.8 316.1c-2.6 1.6.2 2 4.4.5l4.3-1.5-3.7.1c-2 .1-4.3.5-5 .9zM0 319.9c0 4.1 1.8 5.9 3.9 3.8 1.4-1.4 1.4-3.7 0-3.7-.8 0-.9-.4 0-1.3 1.3-1.6.5-2.7-2.1-2.7-1.4 0-1.8.8-1.8 3.9zM7.3 319.6c-1.5 1.5-1.7 4.4-.4 4.4.7 0 2.3-5.1 1.8-5.6-.1-.1-.8.4-1.4 1.2zM13 320.5c0 .8.6 1.5 1.4 1.5.8 0 1.6.5 1.8 1.1.3.8 1.5.9 3.8.4 3.2-.7 3.3-.8 1.5-2.1-1.1-.8-2.6-1.2-3.3-.9-.7.3-2.2 0-3.3-.5-1.5-.8-1.9-.7-1.9.5zM0 334.5c0 .8.4 1.5 1 1.5.5 0 .7-.7.4-1.5-.4-.8-.8-1.5-1-1.5-.2 0-.4.7-.4 1.5zM.1 348.5c.1 3 .5 5.5.9 5.5 1.6 0 3-2.8 3-6.1 0-3.1.4-3.8 2.3-4.2 1.2-.2.3-.5-2.1-.6l-4.3-.1.2 5.5zM337.7 434.4c-.4 1-.5 2.1-.2 2.4.9.9 1.7-.6 1.3-2.5-.3-1.7-.4-1.7-1.1.1zM387.8 448.8c-2.1 1.3-2.8 2.4-2.8 4.9 0 3.8 1.4 4.3 3.1 1.2 1-2 3-7.9 2.6-7.9-.1 0-1.4.8-2.9 1.8zM406 458.6c0 .8.5 1.2 1 .9.6-.4.8-1.1.5-1.6-.9-1.4-1.5-1.1-1.5.7zM429.3 472.3c-1.8 1.2-3.3 2.5-3.3 3 0 1 5.4-1.8 6.9-3.7 1.9-2.2.2-1.9-3.6.7zM380.3 473.1c-3.8 2.4-5.6 6.9-4.3 10.5.6 1.4 1 4.1 1 6 0 4 2.5 5.7 4.5 3 1.2-1.5 3.2-20.2 2.3-21.1-.2-.2-1.8.5-3.5 1.6zM442.4 482.2c.7 6 1.9 8.2 4.1 7.4 1.5-.5.9-6.5-.9-8.5-.9-1-1.6-2.5-1.6-3.4 0-.9-.5-1.7-1.1-1.7-.8 0-.9 1.9-.5 6.2zM413 481c0 1.3 1.1 1.3 3 0 1.2-.8 1.1-1-.7-1-1.3 0-2.3.4-2.3 1zM471.6 487.3l.6 5.5-4.5 2.6c-2.4 1.4-5.3 2.6-6.5 2.6-1.1 0-2.4.4-2.7 1-.3.5-1.7 1-3 1s-2.6.4-2.9.9c-.4.5-2.9 1.2-5.6 1.6-2.8.4-5 1.1-5 1.6s-.6.9-1.2.9c-.7 0-3 1.6-5 3.5s-4.3 3.5-5 3.6c-.7 0-4 1.8-7.3 3.9-8.1 5.3-12.1 7.1-17.9 8.1-2.7.5-5.2 1.2-5.5 1.6-.3.4-4 .9-8.1 1.1-4.1.2-8.3.6-9.2.8-1 .3-2.5-.4-3.5-1.5-2.1-2.6-5.5-2.7-7.6-.4-3.2 3.7-3.8 9.8-3.3 34.2l.5 23.6 14 .3 14.1.3.1-2.8c.1-1.6 0-3.4-.1-4.2-.1-.9.4-1.2 1.5-.7.9.3 1.3.2 1-.3-.3-.5.4-1.3 1.5-1.6 1.2-.4 2-1.4 1.8-2.3-.1-.9.3-2.7 1-3.9 1-1.9 1.6-2 4.5-1.1 2.8.9 3.5 1.7 4.6 5.7.7 2.5 2 6.1 2.9 7.8l1.7 3.3H439l-1.5-2.3c-1.1-1.8-1.3-3.1-.5-5.8 1.7-5.7-.5-14.9-3.5-14.9-.8 0-1.5-.5-1.5-1 0-1.8-3-1.1-3.1.7 0 1.5-.2 1.5-.9-.2-.5-1.1-1.1-3.3-1.5-4.8-.3-1.5-.9-2.5-1.4-2.3-.5.3-1.4-1.5-2.1-4-1.1-3.7-1-5.2 0-8.4.7-2.2 1.6-4 2-4 .3 0 3.1-2.5 6.1-5.5 3-3 6-5.5 6.7-5.5 2.3 0 13.1-7.1 13.7-9 .3-.9 2.5-3.8 5-6.4 2.5-2.5 4.5-5 4.5-5.5 0-.4 1.1-1.3 2.4-1.9 1.3-.6 4.4-2.6 6.8-4.4 2.4-1.8 5.4-4 6.7-4.8l2.3-1.5-2.9-4.9c-4.1-7-5.4-7.1-4.7-.3zM490 505c0 1.1.2 2 .4 2s.6-.9.9-2c.3-1.1.1-2-.4-2s-.9.9-.9 2zM505 539.2c0 4.5 5.6 10.8 9.6 10.8 1.7 0-2.2-6.5-6.8-11.2-2.3-2.3-2.8-2.3-2.8.4zM563.5 542.3c-.4 3.1-.5 6.7-.1 8 .6 2.5-1 27.9-2 31.4-.6 2.3-.6 2.3 11 2.3 6.4 0 11.6-.4 11.6-.8s-.5-1.3-1.2-2c-.9-.9-.9-1.2 0-1.2s1.2-3.1 1.2-10.8v-10.7l-3.4-2.3c-2.3-1.6-3.2-2.9-2.9-4.1.3-1.4-.3-2-2.5-2.4-2.1-.4-3.9-2.1-6.9-6.8l-4.1-6.2-.7 5.6zM525.2 544.3c-.6.7-3.1 7.1-5.4 14.3-4.3 12.6-4.4 12.9-8.5 15-2.2 1.1-5.3 3.1-6.8 4.2-1.9 1.5-4.2 2.2-7.2 2.2-3.7 0-4.4.3-3.9 1.6.3.9.6 1.8.6 2 0 .8 5.6.4 6.6-.5.5-.4 2.4-1.1 4.2-1.4 2.4-.5 3.2-.3 3.2.8 0 1.2 1.9 1.5 10 1.5 7.3 0 10-.3 10.1-1.3 1.1-13.3.4-39.7-1.1-39.7-.4 0-1.2.6-1.8 1.3zM490 546c0 .5.5 1 1 1 .6 0 1-.5 1-1 0-.6-.4-1-1-1-.5 0-1 .4-1 1zM581.6 548.5c-1.9 1.5-1.9 1.5.2 1.5 1.3 0 2.2-.6 2.2-1.5 0-1.8 0-1.8-2.4 0z"/><path d="M432.2 554c0 1.4.2 1.9.5 1.2.2-.6.2-1.8 0-2.5-.3-.6-.5-.1-.5 1.3zM476.1 573.6c0 1.1.3 1.4.6.6.3-.7.2-1.6-.1-1.9-.3-.4-.6.2-.5 1.3zM478 576.8c0 1.8 6.6 6.9 7.6 5.9 1.1-1-1.6-4.6-4.6-6-2.7-1.4-3-1.4-3 .1z"/></svg>